<svg width="1280" height="842" viewBox="0 0 1280 842" fill="none" xmlns="http://www.w3.org/2000/svg">
<path d="M1358 88.9459C1240.82 32.6247 1074.62 38.7574 969.021 107.544C964.378 110.573 959.935 113.677 955.649 116.856L851.908 49.2707L1118.46 -124.424H1023.74L804.558 18.4067L585.356 -124.424H490.634L757.186 49.2707L176.375 427.724L-168 203.315V265.043L129.003 458.588L-168 652.133V713.861L176.375 489.452L468.399 679.743L219.661 841.823H314.384L515.771 710.607L717.159 841.823H811.881L563.143 679.743L1143.93 301.289L1358 440.791V379.063L1191.3 270.45L1358 161.838V88.996V88.9459ZM515.749 648.854L223.725 458.563L804.536 80.1348L1096.56 270.425L515.771 648.879L515.749 648.854ZM1143.93 239.536L991.881 140.461C996.101 137.232 1000.57 134.078 1005.25 131.024C1093.9 73.2511 1234.14 68.7203 1331.48 117.332L1143.93 239.536ZM1038.14 841.823L1357.98 633.409V571.681L943.393 841.823H1038.12H1038.14Z" fill="#EFF2FA"/>
</svg>
