<svg width="50" height="50" viewBox="0 0 50 50" fill="none" xmlns="http://www.w3.org/2000/svg">
<path fill-rule="evenodd" clip-rule="evenodd" d="M25.5816 3.047C13.6349 3.047 3.91992 12.6874 3.91992 24.541C3.91992 29.2416 5.45135 33.5984 8.04559 37.1429L5.34061 45.1237L13.6632 42.4792C17.0826 44.7227 21.1798 46.0327 25.5816 46.0327C37.5233 46.0327 47.2409 36.3914 47.2409 24.541C47.2409 12.6874 37.5233 3.047 25.5816 3.047Z" fill="url(#paint0_linear_1_4199)"/>
<path fill-rule="evenodd" clip-rule="evenodd" d="M49.9999 24.3568C49.9999 37.8061 39.0111 48.7116 25.4555 48.7116C21.1506 48.7116 17.1061 47.6123 13.5902 45.681L0 49.9997L4.42993 36.9331C2.19444 33.2623 0.909111 28.9574 0.909111 24.3568C0.909111 10.9048 11.8979 0 25.4555 0C39.0109 0 49.9999 10.9048 49.9999 24.3568ZM25.4555 3.87922C14.0737 3.87922 4.81803 13.064 4.81803 24.357C4.81803 28.8355 6.27697 32.9861 8.7486 36.3632L6.17147 43.9666L14.1006 41.4471C17.3582 43.5846 21.2617 44.8325 25.4553 44.8325C36.8324 44.8325 46.0906 35.6471 46.0906 24.357C46.0908 13.0638 36.8325 3.87922 25.4555 3.87922ZM37.8499 29.9666C37.6978 29.7174 37.2964 29.568 36.6972 29.2694C36.0951 28.9714 33.1353 27.5255 32.5846 27.3277C32.0339 27.1291 31.6297 27.029 31.2311 27.6256C30.8298 28.2228 29.6763 29.568 29.3242 29.9666C28.9742 30.3659 28.6242 30.4144 28.0221 30.1159C27.4193 29.818 25.4797 29.1853 23.1826 27.1542C21.3951 25.5695 20.1875 23.6166 19.8347 23.0195C19.4854 22.423 19.7999 22.1 20.0979 21.8021C20.3695 21.5333 20.7007 21.1048 21.0014 20.7576C21.3029 20.4076 21.4028 20.1576 21.6035 19.7591C21.8042 19.3605 21.7043 19.0133 21.5521 18.7146C21.4028 18.4166 20.1987 15.4785 19.6965 14.282C19.1979 13.0889 18.6959 13.1335 18.3431 13.1335C17.9931 13.1335 17.3437 13.2376 17.3437 13.2376C17.3437 13.2376 16.1375 13.3869 15.5869 13.9841C15.0362 14.5805 13.4821 16.0264 13.4821 18.9617C13.4821 21.8992 15.6362 24.7395 15.9369 25.1353C16.2382 25.5346 20.0981 31.7597 26.2154 34.1499C32.3327 36.5395 32.3327 35.7423 33.4362 35.6415C34.5377 35.5444 36.9953 34.1985 37.4973 32.804C37.9993 31.4097 37.9993 30.2138 37.8499 29.9666Z" fill="white"/>
<defs>
<linearGradient id="paint0_linear_1_4199" x1="25.5805" y1="3.047" x2="25.5805" y2="46.0327" gradientUnits="userSpaceOnUse">
<stop stop-color="#4AC14B"/>
<stop offset="1" stop-color="#06853A"/>
</linearGradient>
</defs>
</svg>
